<svg xmlns="http://www.w3.org/2000/svg" xmlns:xlink="http://www.w3.org/1999/xlink" id="Capa_1" x="0px" y="0px" viewBox="0 0 1864 532" style="enable-background:new 0 0 1864 532;" xml:space="preserve"><style type="text/css">	.st0{fill:#FFFFFF;}	.st1{fill:#FED925;}</style><g>	<g>		<path class="st0" d="M598.06,205.56V6.19h121.19v25.59h-93.63v64.11h84.92v25.87h-84.92v83.8H598.06z"></path>		<path class="st0" d="M786.74,209.78c-31.49,0-50.61-23.62-50.61-54.27V70.3h26.43v81.27c0,18.56,8.44,34.87,30.65,34.87   c21.37,0,32.06-14.06,32.06-34.59V70.3h26.43v110.23c0,10.69,0.84,20.25,1.41,25.03h-25.31c-0.56-3.09-1.12-10.69-1.12-16.31   C819.35,203.31,802.48,209.78,786.74,209.78z"></path>		<path class="st0" d="M923.12,205.56h-26.43V70.3h25.87v19.4c9.84-16.87,25.87-23.34,41.61-23.34c32.34,0,48.36,23.34,48.36,53.43   v85.77H986.1v-81.27c0-18.84-7.87-34.03-31.49-34.03c-20.81,0-31.49,16.59-31.49,37.12V205.56z"></path>		<path class="st0" d="M1149.48,185.03c-6.47,12.94-20.81,24.18-41.9,24.18c-39.65,0-64.11-31.49-64.11-71.71   c0-38.24,25.87-70.86,64.11-70.86c23.9,0,36.84,11.81,41.33,22.78V1.97h26.15v178.56c0,12.94,1.12,22.78,1.41,25.03h-25.59   c-0.56-3.09-1.41-10.12-1.41-18.28V185.03z M1110.11,185.87c24.18,0,39.08-21.09,39.08-48.93s-14.62-46.96-38.8-46.96   c-24.18,0-39.93,19.68-39.93,47.52S1084.81,185.87,1110.11,185.87z"></path>		<path class="st0" d="M1252.68,128.23l36.55-5.34c8.15-1.12,10.4-5.34,10.4-10.12c0-13.22-8.72-24.18-29.24-24.18   c-18.56,0-28.96,11.53-30.65,27.28l-25.31-5.91c2.81-25.87,26.15-43.87,55.39-43.87c40.49,0,56.24,23.06,56.24,49.49v67.77   c0,11.81,1.12,18.84,1.69,22.21h-25.87c-0.56-3.37-1.41-8.44-1.41-18.28c-5.9,9.56-19.4,22.5-43.58,22.5   c-27.56,0-45.27-19.12-45.27-40.49C1211.63,145.1,1229.35,131.6,1252.68,128.23z M1299.64,147.63v-6.19l-41.33,6.19   c-11.25,1.69-19.68,8.15-19.68,20.25c0,10.12,8.44,19.68,21.93,19.68C1282.21,187.56,1299.64,177.16,1299.64,147.63z"></path>		<path class="st0" d="M1382.88,137.79c0,30.93,19.4,47.52,41.33,47.52c25.31,0,34.59-17.15,37.68-27.84l23.34,10.12   c-6.47,19.4-25.87,42.18-61.02,42.18c-39.37,0-68.33-30.93-68.33-71.99c0-42.18,29.52-71.71,68.05-71.71   c35.99,0,54.55,22.5,60.17,43.02l-23.9,10.12c-3.37-13.22-13.22-28.68-36.27-28.68C1402.56,90.55,1382.88,106.29,1382.88,137.79z"></path>		<path class="st0" d="M1529.1,0c10.69,0,19.12,8.44,19.12,19.12c0,10.4-8.44,18.84-19.12,18.84c-10.4,0-18.84-8.44-18.84-18.84   C1510.26,8.44,1518.7,0,1529.1,0z M1516.17,205.56V70.3h26.15v135.26H1516.17z"></path>		<path class="st0" d="M1714.4,137.79c0,41.34-28.68,71.99-69.17,71.99c-40.49,0-69.17-30.65-69.17-71.99   c0-41.06,28.68-71.71,69.17-71.71C1685.72,66.08,1714.4,96.73,1714.4,137.79z M1687.41,137.79c0-31.21-19.68-48.09-42.18-48.09   s-42.18,16.87-42.18,48.09c0,31.49,19.68,48.37,42.18,48.37S1687.41,169.28,1687.41,137.79z M1651.7,52.87h-22.21l24.46-41.06   h33.18L1651.7,52.87z"></path>		<path class="st0" d="M1774.58,205.56h-26.43V70.3h25.87v19.4c9.84-16.87,25.87-23.34,41.62-23.34c32.34,0,48.36,23.34,48.36,53.43   v85.77h-26.43v-81.27c0-18.84-7.87-34.03-31.49-34.03c-20.81,0-31.49,16.59-31.49,37.12V205.56z"></path>		<path class="st0" d="M584.56,379.03c0-64.96,48.65-104.04,100.38-104.04c50.61,0,80.7,29.81,89.7,64.68l-31.77,10.69   c-5.9-24.18-24.46-43.59-57.92-43.59c-32.9,0-65.8,23.9-65.8,72.27c0,46.68,32.06,71.43,66.08,71.43   c33.46,0,52.58-21.37,59.33-43.87l30.93,10.12c-9,33.74-39.37,66.08-90.26,66.08C631.52,482.79,584.56,443.98,584.56,379.03z"></path>		<path class="st0" d="M933.24,409.96c0,42.18-30.09,72.83-71.14,72.83c-40.77,0-70.86-30.65-70.86-72.83   c0-41.9,30.09-72.55,70.86-72.55C903.16,337.41,933.24,368.06,933.24,409.96z M900.34,409.96c0-28.4-18-43.02-38.24-43.02   c-19.96,0-38.24,14.62-38.24,43.02c0,28.4,18.28,43.59,38.24,43.59C882.35,453.55,900.34,438.64,900.34,409.96z"></path>		<path class="st0" d="M964.74,532V341.63h31.49v18.56c6.75-11.81,22.49-21.65,43.58-21.65c40.49,0,63.27,30.93,63.27,71.42   c0,41.06-25.03,71.99-64.39,71.99c-19.68,0-34.59-8.44-41.62-18.84V532H964.74z M1033.63,367.5c-21.37,0-36.84,16.87-36.84,42.46   c0,26.15,15.47,43.02,36.84,43.02c21.65,0,36.84-16.87,36.84-43.02C1070.46,384.37,1055.56,367.5,1033.63,367.5z"></path>		<path class="st0" d="M1134.58,532V341.63h31.49v18.56c6.75-11.81,22.49-21.65,43.58-21.65c40.49,0,63.27,30.93,63.27,71.42   c0,41.06-25.03,71.99-64.39,71.99c-19.68,0-34.59-8.44-41.62-18.84V532H1134.58z M1203.47,367.5c-21.37,0-36.84,16.87-36.84,42.46   c0,26.15,15.47,43.02,36.84,43.02c21.65,0,36.84-16.87,36.84-43.02C1240.31,384.37,1225.41,367.5,1203.47,367.5z"></path>		<path class="st0" d="M1425.62,439.49c-7.31,23.9-28.96,43.3-61.86,43.3c-37.12,0-70.02-27-70.02-73.39   c0-43.3,32.06-71.99,66.64-71.99c42.18,0,66.92,27.84,66.92,71.14c0,5.34-0.56,9.84-0.84,10.4h-100.1   c0.84,20.81,17.15,35.71,37.4,35.71c19.68,0,29.81-10.4,34.3-23.9L1425.62,439.49z M1394.4,395.06   c-0.56-16.03-11.25-30.37-33.74-30.37c-20.53,0-32.34,15.75-33.46,30.37H1394.4z"></path>		<path class="st0" d="M1458.52,478.57V274.98h32.62v203.59H1458.52z"></path>	</g>	<g>		<path class="st1" d="M69.15,242.51L69.15,242.51c38.19,0,69.15,30.96,69.15,69.15v14.18c0,7.71,6.25,13.96,13.96,13.96h14.18   c38.19,0,69.15,30.96,69.15,69.15l0,0c0,38.19-30.96,69.15-69.15,69.15l-28.13,0H13.96C6.25,478.11,0,471.86,0,464.15V339.8   v-28.13C0,273.48,30.96,242.51,69.15,242.51z"></path>		<path class="st1" d="M234.04,76.07L234.04,76.07c0,38.19,30.96,69.15,69.15,69.15h14.18c7.71,0,13.96,6.25,13.96,13.96v14.18   c0,38.19,30.96,69.15,69.15,69.15v0c38.19,0,69.15-30.96,69.15-69.15l0-28.13V20.87c0-7.71-6.25-13.96-13.96-13.96H331.33h-28.13   C265,6.92,234.04,37.88,234.04,76.07z"></path>		<ellipse class="st0" cx="234.64" cy="242.34" rx="56.48" ry="56.48"></ellipse>	</g></g></svg>